<svg width="59" height="59" viewBox="0 0 59 59" fill="none" xmlns="http://www.w3.org/2000/svg">
<rect width="58.4418" height="58.2328" rx="29.1164" fill="#E8E248"/>
<path d="M47.9255 31.3986C47.7909 31.4996 47.6377 31.573 47.4747 31.6148C47.3117 31.6565 47.1421 31.6658 46.9755 31.642C46.809 31.6182 46.6487 31.5618 46.5039 31.4761C46.3592 31.3904 46.2327 31.277 46.1317 31.1424C45.3595 30.1043 44.3543 29.2621 43.1971 28.6835C42.0399 28.1049 40.763 27.8061 39.4692 27.8111C39.2173 27.8111 38.9709 27.7368 38.761 27.5975C38.551 27.4582 38.3868 27.2601 38.2889 27.028C38.2224 26.8703 38.1881 26.701 38.1881 26.5299C38.1881 26.3588 38.2224 26.1894 38.2889 26.0318C38.3868 25.7996 38.551 25.6015 38.761 25.4622C38.9709 25.3229 39.2173 25.2486 39.4692 25.2486C40.1881 25.2486 40.8926 25.0469 41.5026 24.6665C42.1127 24.2861 42.6038 23.7423 42.9202 23.0968C43.2367 22.4513 43.3658 21.73 43.2928 21.0148C43.2199 20.2996 42.9478 19.6192 42.5075 19.0509C42.0673 18.4826 41.4765 18.0491 40.8022 17.7998C40.128 17.5504 39.3973 17.4951 38.6932 17.6402C37.9891 17.7853 37.3398 18.1249 36.819 18.6205C36.2983 19.1161 35.9269 19.7479 35.7472 20.4439C35.7051 20.6069 35.6314 20.76 35.5301 20.8945C35.4289 21.029 35.3022 21.1423 35.1572 21.2278C35.0122 21.3133 34.8517 21.3694 34.6851 21.3929C34.5184 21.4164 34.3487 21.4069 34.1857 21.3648C34.0227 21.3228 33.8696 21.249 33.7351 21.1478C33.6006 21.0465 33.4873 20.9198 33.4018 20.7748C33.3163 20.6298 33.2602 20.4694 33.2367 20.3027C33.2132 20.136 33.2227 19.9663 33.2648 19.8033C33.5142 18.8381 33.9855 17.9444 34.6411 17.1933C35.2968 16.4423 36.1186 15.8546 37.0413 15.4771C37.9641 15.0996 38.9621 14.9426 39.9562 15.0187C40.9502 15.0948 41.9128 15.4018 42.7673 15.9154C43.6218 16.4289 44.3446 17.1348 44.8783 17.9769C45.412 18.819 45.7418 19.774 45.8414 20.766C45.9411 21.7579 45.8078 22.7595 45.4523 23.6909C45.0967 24.6223 44.5287 25.4578 43.7935 26.1311C45.5357 26.8854 47.0502 28.0824 48.1865 29.6033C48.2875 29.7382 48.3608 29.8918 48.4023 30.0551C48.4439 30.2184 48.4528 30.3883 48.4285 30.5551C48.4043 30.7219 48.3473 30.8822 48.261 31.027C48.1747 31.1717 48.0607 31.298 47.9255 31.3986ZM39.2963 41.2642C39.389 41.4101 39.4512 41.5731 39.4793 41.7437C39.5073 41.9142 39.5006 42.0886 39.4595 42.2564C39.4184 42.4243 39.3437 42.5821 39.24 42.7203C39.1364 42.8585 39.0058 42.9744 38.8562 43.0609C38.7066 43.1473 38.541 43.2027 38.3695 43.2235C38.198 43.2443 38.024 43.2303 37.858 43.1821C37.6921 43.134 37.5376 43.0528 37.4038 42.9433C37.27 42.8339 37.1598 42.6986 37.0797 42.5455C36.2726 41.1788 35.1231 40.0462 33.7447 39.2594C32.3662 38.4726 30.8064 38.0588 29.2192 38.0588C27.632 38.0588 26.0723 38.4726 24.6938 39.2594C23.3154 40.0462 22.1659 41.1788 21.3588 42.5455C21.2787 42.6986 21.1684 42.8339 21.0347 42.9433C20.9009 43.0528 20.7464 43.134 20.5805 43.1821C20.4145 43.2303 20.2405 43.2443 20.069 43.2235C19.8974 43.2027 19.7319 43.1473 19.5823 43.0609C19.4327 42.9744 19.3021 42.8585 19.1984 42.7203C19.0948 42.5821 19.0201 42.4243 18.979 42.2564C18.9379 42.0886 18.9312 41.9142 18.9592 41.7437C18.9873 41.5731 19.0495 41.4101 19.1422 41.2642C20.3844 39.13 22.2784 37.4504 24.5459 36.4724C23.27 35.4955 22.3322 34.1433 21.8645 32.6059C21.3968 31.0685 21.4227 29.4232 21.9384 27.9013C22.4541 26.3793 23.4338 25.0573 24.7398 24.1209C26.0457 23.1846 27.6123 22.681 29.2192 22.681C30.8262 22.681 32.3927 23.1846 33.6987 24.1209C35.0047 25.0573 35.9843 26.3793 36.5001 27.9013C37.0158 29.4232 37.0416 31.0685 36.5739 32.6059C36.1062 34.1433 35.1685 35.4955 33.8926 36.4724C36.1601 37.4504 38.0541 39.13 39.2963 41.2642ZM29.2192 35.4986C30.2329 35.4986 31.2237 35.198 32.0665 34.6349C32.9093 34.0718 33.5662 33.2713 33.9541 32.3349C34.342 31.3984 34.4435 30.3679 34.2458 29.3738C34.048 28.3796 33.5599 27.4664 32.8432 26.7497C32.1264 26.033 31.2132 25.5448 30.2191 25.3471C29.2249 25.1493 28.1945 25.2508 27.258 25.6387C26.3215 26.0266 25.5211 26.6835 24.958 27.5263C24.3948 28.3691 24.0942 29.36 24.0942 30.3736C24.0942 31.7329 24.6342 33.0364 25.5953 33.9975C26.5564 34.9587 27.86 35.4986 29.2192 35.4986ZM20.2505 26.5299C20.2505 26.1901 20.1155 25.8642 19.8752 25.6239C19.6349 25.3836 19.309 25.2486 18.9692 25.2486C18.2503 25.2486 17.5459 25.0469 16.9358 24.6665C16.3258 24.2861 15.8347 23.7423 15.5182 23.0968C15.2018 22.4513 15.0727 21.73 15.1457 21.0148C15.2186 20.2996 15.4907 19.6192 15.9309 19.0509C16.3712 18.4826 16.962 18.0491 17.6363 17.7998C18.3105 17.5504 19.0412 17.4951 19.7453 17.6402C20.4494 17.7853 21.0987 18.1249 21.6195 18.6205C22.1402 19.1161 22.5115 19.7479 22.6913 20.4439C22.7762 20.7731 22.9885 21.0551 23.2813 21.2278C23.5741 21.4005 23.9236 21.4498 24.2528 21.3648C24.582 21.2799 24.8639 21.0676 25.0366 20.7748C25.2093 20.4819 25.2586 20.1325 25.1737 19.8033C24.9242 18.8381 24.4529 17.9444 23.7973 17.1933C23.1417 16.4423 22.3198 15.8546 21.3971 15.4771C20.4744 15.0996 19.4763 14.9426 18.4823 15.0187C17.4882 15.0948 16.5257 15.4018 15.6712 15.9154C14.8167 16.4289 14.0938 17.1348 13.5602 17.9769C13.0265 18.819 12.6967 19.774 12.597 20.766C12.4974 21.7579 12.6307 22.7595 12.9862 23.6909C13.3417 24.6223 13.9097 25.4578 14.645 26.1311C12.9046 26.8861 11.3918 28.0831 10.2567 29.6033C10.0526 29.8751 9.96489 30.2169 10.0128 30.5534C10.0607 30.89 10.2403 31.1937 10.5122 31.3978C10.784 31.6019 11.1258 31.6897 11.4624 31.6418C11.7989 31.5939 12.1026 31.4142 12.3067 31.1424C13.079 30.1043 14.0842 29.2621 15.2414 28.6835C16.3986 28.1049 17.6755 27.8061 18.9692 27.8111C19.309 27.8111 19.6349 27.6761 19.8752 27.4358C20.1155 27.1956 20.2505 26.8697 20.2505 26.5299Z" fill="#575757"/>
</svg>
