<svg width="39" height="29" viewBox="0 0 39 29" fill="none" xmlns="http://www.w3.org/2000/svg">
<path d="M37.9255 16.3986C37.7909 16.4996 37.6377 16.573 37.4747 16.6148C37.3117 16.6565 37.1421 16.6658 36.9755 16.642C36.809 16.6182 36.6487 16.5618 36.5039 16.4761C36.3592 16.3904 36.2327 16.277 36.1317 16.1424C35.3595 15.1043 34.3543 14.2621 33.1971 13.6835C32.0399 13.1049 30.763 12.8061 29.4692 12.8111C29.2173 12.8111 28.9709 12.7368 28.761 12.5975C28.551 12.4582 28.3868 12.2601 28.2889 12.028C28.2224 11.8703 28.1881 11.701 28.1881 11.5299C28.1881 11.3588 28.2224 11.1894 28.2889 11.0318C28.3868 10.7996 28.551 10.6015 28.761 10.4622C28.9709 10.3229 29.2173 10.2486 29.4692 10.2486C30.1881 10.2486 30.8926 10.0469 31.5026 9.66652C32.1127 9.28615 32.6038 8.74233 32.9202 8.09682C33.2367 7.45132 33.3658 6.73001 33.2928 6.01483C33.2199 5.29964 32.9478 4.61925 32.5075 4.05093C32.0673 3.48261 31.4765 3.04915 30.8022 2.79978C30.128 2.55041 29.3973 2.49512 28.6932 2.64021C27.9891 2.78529 27.3398 3.12493 26.819 3.62054C26.2983 4.11614 25.9269 4.74786 25.7472 5.44393C25.7051 5.60693 25.6314 5.76004 25.5301 5.89454C25.4289 6.02903 25.3022 6.14227 25.1572 6.22778C25.0122 6.3133 24.8517 6.36941 24.6851 6.39292C24.5184 6.41644 24.3487 6.40689 24.1857 6.36483C24.0227 6.32276 23.8696 6.24901 23.7351 6.14777C23.6006 6.04653 23.4873 5.91979 23.4018 5.77479C23.3163 5.62979 23.2602 5.46937 23.2367 5.30268C23.2132 5.13599 23.2227 4.9663 23.2648 4.80331C23.5142 3.83807 23.9855 2.94437 24.6411 2.19332C25.2968 1.44227 26.1186 0.854609 27.0413 0.477085C27.9641 0.0995607 28.9621 -0.0574019 29.9562 0.0186859C30.9502 0.0947738 31.9128 0.401812 32.7673 0.915371C33.6218 1.42893 34.3446 2.13483 34.8783 2.97691C35.412 3.81899 35.7418 4.77401 35.8414 5.76597C35.9411 6.75793 35.8078 7.75945 35.4523 8.69086C35.0967 9.62226 34.5287 10.4578 33.7935 11.1311C35.5357 11.8854 37.0502 13.0824 38.1865 14.6033C38.2875 14.7382 38.3608 14.8918 38.4023 15.0551C38.4439 15.2184 38.4528 15.3883 38.4285 15.5551C38.4043 15.7219 38.3473 15.8822 38.261 16.027C38.1747 16.1717 38.0607 16.298 37.9255 16.3986ZM29.2963 26.2642C29.389 26.4101 29.4512 26.5731 29.4793 26.7437C29.5073 26.9142 29.5006 27.0886 29.4595 27.2564C29.4184 27.4243 29.3437 27.5821 29.24 27.7203C29.1364 27.8585 29.0058 27.9744 28.8562 28.0609C28.7066 28.1473 28.541 28.2027 28.3695 28.2235C28.198 28.2443 28.024 28.2303 27.858 28.1821C27.6921 28.134 27.5376 28.0528 27.4038 27.9433C27.27 27.8339 27.1598 27.6986 27.0797 27.5455C26.2726 26.1788 25.1231 25.0462 23.7447 24.2594C22.3662 23.4726 20.8064 23.0588 19.2192 23.0588C17.632 23.0588 16.0723 23.4726 14.6938 24.2594C13.3154 25.0462 12.1659 26.1788 11.3588 27.5455C11.2787 27.6986 11.1684 27.8339 11.0347 27.9433C10.9009 28.0528 10.7464 28.134 10.5805 28.1821C10.4145 28.2303 10.2405 28.2443 10.069 28.2235C9.89743 28.2027 9.73188 28.1473 9.58228 28.0609C9.43267 27.9744 9.3021 27.8585 9.19843 27.7203C9.09476 27.5821 9.02012 27.4243 8.97901 27.2564C8.9379 27.0886 8.93116 26.9142 8.95921 26.7437C8.98725 26.5731 9.0495 26.4101 9.1422 26.2642C10.3844 24.13 12.2784 22.4504 14.5459 21.4724C13.27 20.4955 12.3322 19.1433 11.8645 17.6059C11.3968 16.0685 11.4227 14.4232 11.9384 12.9013C12.4541 11.3793 13.4338 10.0573 14.7398 9.12092C16.0457 8.18456 17.6123 7.68099 19.2192 7.68099C20.8262 7.68099 22.3927 8.18456 23.6987 9.12092C25.0047 10.0573 25.9843 11.3793 26.5001 12.9013C27.0158 14.4232 27.0416 16.0685 26.5739 17.6059C26.1062 19.1433 25.1685 20.4955 23.8926 21.4724C26.1601 22.4504 28.0541 24.13 29.2963 26.2642ZM19.2192 20.4986C20.2329 20.4986 21.2237 20.198 22.0665 19.6349C22.9093 19.0718 23.5662 18.2713 23.9541 17.3349C24.342 16.3984 24.4435 15.3679 24.2458 14.3738C24.048 13.3796 23.5599 12.4664 22.8432 11.7497C22.1264 11.033 21.2132 10.5448 20.2191 10.3471C19.2249 10.1493 18.1945 10.2508 17.258 10.6387C16.3215 11.0266 15.5211 11.6835 14.958 12.5263C14.3948 13.3691 14.0942 14.36 14.0942 15.3736C14.0942 16.7329 14.6342 18.0364 15.5953 18.9975C16.5564 19.9587 17.86 20.4986 19.2192 20.4986ZM10.2505 11.5299C10.2505 11.1901 10.1155 10.8642 9.87522 10.6239C9.63494 10.3836 9.30904 10.2486 8.96924 10.2486C8.25034 10.2486 7.54587 10.0469 6.93584 9.66652C6.32582 9.28615 5.83469 8.74233 5.51824 8.09682C5.20179 7.45132 5.07271 6.73001 5.14566 6.01483C5.21861 5.29964 5.49067 4.61925 5.93092 4.05093C6.37118 3.48261 6.96199 3.04915 7.63625 2.79978C8.31051 2.55041 9.04119 2.49512 9.7453 2.64021C10.4494 2.78529 11.0987 3.12493 11.6195 3.62054C12.1402 4.11614 12.5115 4.74786 12.6913 5.44393C12.7762 5.77312 12.9885 6.05508 13.2813 6.22778C13.5741 6.40048 13.9236 6.44978 14.2528 6.36483C14.582 6.27988 14.8639 6.06763 15.0366 5.77479C15.2093 5.48195 15.2586 5.13249 15.1737 4.80331C14.9242 3.83807 14.4529 2.94437 13.7973 2.19332C13.1417 1.44227 12.3198 0.854609 11.3971 0.477085C10.4744 0.0995607 9.47634 -0.0574019 8.48229 0.0186859C7.48825 0.0947738 6.52568 0.401812 5.67118 0.915371C4.81668 1.42893 4.09383 2.13483 3.56015 2.97691C3.02647 3.81899 2.69669 4.77401 2.59705 5.76597C2.49741 6.75793 2.63065 7.75945 2.98619 8.69086C3.34172 9.62226 3.90973 10.4578 4.64502 11.1311C2.90457 11.8861 1.39179 13.0831 0.256736 14.6033C0.0526384 14.8751 -0.0351092 15.2169 0.0127968 15.5534C0.0607028 15.89 0.240338 16.1937 0.512185 16.3978C0.784032 16.6019 1.12582 16.6897 1.46237 16.6418C1.79891 16.5939 2.10264 16.4142 2.30674 16.1424C3.07899 15.1043 4.08417 14.2621 5.24137 13.6835C6.39857 13.1049 7.67546 12.8061 8.96924 12.8111C9.30904 12.8111 9.63494 12.6761 9.87522 12.4358C10.1155 12.1956 10.2505 11.8697 10.2505 11.5299Z" fill="#575757"/>
</svg>
